<?xml version="1.0" standalone="no"?>
<!DOCTYPE svg PUBLIC "-//W3C//DTD SVG 20010904//EN"
 "http://www.w3.org/TR/2001/REC-SVG-20010904/DTD/svg10.dtd">
<svg version="1.0" xmlns="http://www.w3.org/2000/svg"
 width="260.000000pt" height="260.000000pt" viewBox="0 0 260.000000 260.000000"
 preserveAspectRatio="xMidYMid meet">
<metadata>
Created by potrace 1.11, written by Peter Selinger 2001-2013
</metadata>
<g transform="translate(0.000000,260.000000) scale(0.100000,-0.100000)"
fill="#000000" stroke="none">
<path d="M1253 2383 c-51 -55 -59 -131 -22 -210 12 -26 21 -52 20 -56 -1 -4 3
-16 7 -25 5 -9 12 -36 16 -59 5 -38 4 -41 -15 -36 -12 3 -27 21 -35 39 -7 17
-25 41 -40 53 -31 25 -35 45 -17 89 12 28 12 37 -1 60 -8 15 -20 39 -27 55 -6
15 -15 27 -20 27 -5 0 1 -21 14 -47 22 -44 23 -52 12 -98 -15 -69 -5 -99 56
-161 l51 -52 -58 2 -59 2 -5 40 c-3 26 -16 52 -39 77 -19 20 -37 35 -39 32 -3
-3 6 -18 20 -33 14 -15 28 -44 31 -66 3 -21 13 -49 22 -62 14 -22 22 -24 74
-22 33 2 63 0 66 -4 4 -4 2 -28 -4 -54 -13 -52 -63 -109 -87 -100 -9 4 -12 2
-8 -5 4 -8 -1 -9 -15 -4 -14 4 -21 2 -21 -6 0 -7 -3 -10 -6 -7 -3 3 -32 -4
-65 -17 -66 -26 -77 -25 -23 3 28 15 33 20 20 25 -9 4 -16 2 -16 -4 0 -6 -4
-7 -10 -4 -5 3 -10 1 -10 -5 0 -6 -4 -8 -10 -5 -12 7 -90 -32 -90 -46 0 -6 -4
-8 -8 -5 -5 3 -32 -13 -61 -35 -42 -32 -56 -38 -63 -27 -6 9 -7 6 -3 -10 9
-30 -14 -38 -72 -21 -32 9 -51 21 -62 41 -9 15 -19 28 -24 28 -18 0 41 -71 63
-76 14 -3 36 -10 49 -15 l23 -10 -25 -19 c-30 -24 -47 -26 -47 -6 0 19 -57 62
-93 71 -36 9 -96 -2 -93 -18 10 -56 61 -97 131 -105 43 -4 59 -22 35 -37 -6
-4 -8 -11 -5 -16 12 -18 -18 -8 -47 16 -16 14 -39 25 -51 24 -21 0 -21 -1 2
-10 30 -12 86 -59 86 -73 0 -5 -11 -13 -25 -17 -21 -6 -21 -7 -5 -8 19 -1 20
-7 20 -83 -2 -107 8 -155 44 -231 27 -56 29 -64 15 -84 -7 -12 -14 -29 -14
-38 0 -9 -5 -13 -10 -10 -6 4 -8 10 -6 14 3 4 -1 8 -9 8 -18 0 -19 -9 -3 -25
10 -10 6 -18 -16 -37 -41 -35 -62 -32 -86 15 -29 57 -48 64 -112 43 -31 -11
-66 -16 -83 -12 -16 3 -37 3 -45 0 -8 -3 10 -10 40 -16 47 -9 61 -8 95 7 36
16 41 16 50 2 6 -9 18 -25 28 -36 20 -25 24 -56 5 -40 -20 15 -119 29 -155 21
-18 -3 -52 -22 -76 -42 -32 -26 -56 -37 -91 -40 -26 -3 -50 -8 -54 -12 -4 -3
22 -4 56 -1 54 5 70 11 105 41 31 27 46 33 61 28 12 -5 44 -8 71 -8 71 -1 114
-28 59 -38 -10 -2 -26 -6 -34 -9 -64 -22 -91 -28 -124 -28 -78 0 -165 -56
-186 -119 -18 -54 -7 -64 67 -65 85 0 169 49 188 112 3 12 12 22 19 22 7 0 21
9 31 20 10 11 22 20 27 20 5 0 19 9 31 21 l22 20 3 -25 c2 -14 -4 -36 -13 -49
-8 -14 -18 -35 -20 -48 -6 -32 -29 -47 -81 -55 -39 -6 -48 -12 -79 -57 -18
-29 -31 -54 -28 -57 3 -3 8 1 10 8 3 7 10 18 17 25 7 7 18 22 25 35 7 14 25
24 49 28 70 11 105 35 124 84 9 25 20 57 23 73 7 35 21 35 30 -1 3 -15 15 -37
27 -48 l20 -22 -52 -28 c-29 -16 -47 -30 -41 -32 7 -2 6 -15 -4 -39 -9 -20
-13 -38 -11 -40 6 -6 36 52 36 70 0 8 13 20 29 27 46 19 65 44 51 69 -6 12 -8
21 -5 21 3 0 -3 9 -14 21 -10 11 -21 32 -24 45 -3 20 1 25 22 30 14 3 31 7 38
9 7 2 42 -16 78 -41 37 -24 72 -44 78 -44 7 0 -7 11 -31 25 -24 13 -55 34 -69
45 l-26 20 26 0 c14 0 28 -4 31 -9 17 -28 235 -121 282 -121 27 0 4 19 -31 26
-19 3 -35 10 -35 16 0 5 -6 6 -12 2 -9 -5 -10 -4 -3 4 8 9 28 8 80 -1 39 -7
103 -12 143 -11 54 1 72 -2 72 -11 0 -16 -85 -28 -149 -22 -32 4 -40 2 -32 -6
8 -8 46 -12 101 -11 52 1 87 -3 84 -8 -3 -5 -21 -7 -40 -5 -42 6 -64 -13 -64
-54 0 -39 -24 -47 -109 -37 -120 14 -136 18 -283 71 -38 13 -68 23 -68 22 0
-12 179 -92 225 -101 11 -2 50 -11 87 -20 37 -9 90 -14 118 -12 44 3 50 1 50
-17 0 -11 4 -26 9 -34 6 -10 4 -25 -5 -42 -19 -37 -18 -38 14 -30 24 7 29 4
47 -28 28 -49 57 -52 84 -8 11 19 21 41 21 50 0 8 6 17 14 20 8 3 16 18 18 33
2 20 11 30 33 37 17 6 33 15 37 21 4 6 8 8 8 3 0 -15 180 86 219 123 23 22 41
42 41 45 0 12 -19 4 -46 -21 -37 -33 -99 -75 -146 -99 -21 -11 -38 -23 -38
-26 0 -14 -29 -17 -40 -5 -11 14 -2 19 145 95 63 33 180 145 169 163 -5 8 -1
8 11 -2 11 -9 16 -10 11 -2 -4 7 -1 12 9 12 13 0 14 -4 5 -20 -6 -11 -16 -17
-22 -14 -7 4 -8 3 -4 -4 4 -7 -4 -27 -18 -45 -15 -19 -26 -38 -26 -43 0 -11
-129 -106 -185 -137 -22 -12 -51 -32 -65 -45 -14 -12 -38 -26 -54 -30 -39 -10
-47 -33 -10 -26 15 3 41 12 58 21 28 14 30 14 18 0 -19 -22 -100 -49 -105 -34
-2 6 -6 5 -9 -4 -4 -9 2 -20 13 -27 13 -8 18 -9 17 -1 -2 6 21 20 51 31 115
44 284 157 340 227 20 26 47 68 61 94 22 41 29 47 57 47 17 0 34 -3 36 -7 6
-10 -42 -117 -54 -121 -5 -2 -7 -8 -3 -13 3 -5 1 -9 -4 -9 -5 0 -12 -10 -15
-22 -6 -23 -6 -23 9 -3 15 20 15 20 52 -1 24 -14 45 -37 60 -68 27 -55 40 -57
18 -4 -9 20 -13 38 -9 41 3 3 -15 18 -40 34 l-46 27 29 37 c16 20 26 40 22 45
-3 5 1 2 9 -6 9 -8 21 -33 27 -55 16 -58 44 -83 113 -102 52 -14 63 -22 87
-60 15 -23 31 -43 35 -43 9 0 5 8 -34 66 -26 39 -46 49 -104 55 -20 2 -45 20
-45 33 0 7 -10 33 -23 57 -12 24 -22 51 -22 59 1 18 27 14 38 -6 4 -8 13 -14
18 -14 16 0 89 -62 89 -76 0 -15 50 -59 92 -80 55 -28 168 -21 168 11 0 7 -7
28 -15 48 -23 56 -105 105 -181 108 -48 2 -101 16 -174 47 -18 8 -20 11 -7 11
9 1 17 5 17 10 0 5 24 8 53 8 28 -1 64 1 78 5 21 6 34 1 67 -27 35 -31 49 -36
102 -39 34 -2 58 0 53 5 -4 4 -29 9 -55 10 -36 2 -55 10 -80 32 -18 16 -46 34
-61 41 -36 16 -110 10 -170 -13 l-27 -11 15 28 c8 15 21 36 28 47 6 11 13 22
14 23 1 2 21 -5 46 -16 28 -13 50 -17 58 -11 8 5 29 9 47 9 17 0 32 5 32 10 0
6 -10 8 -22 6 -44 -10 -63 -9 -93 3 -16 7 -44 13 -62 14 -29 2 -31 4 -25 32 8
38 8 172 0 205 -4 14 -7 28 -7 33 -1 4 -5 7 -10 7 -5 0 -3 -26 5 -57 15 -67
18 -113 6 -113 -5 0 -8 12 -7 28 2 37 -20 136 -44 198 -11 29 -17 55 -13 59 4
5 1 5 -5 1 -8 -4 -13 -1 -13 8 0 9 -4 16 -10 16 -14 0 -13 -5 15 -60 14 -28
32 -78 40 -112 12 -55 13 -83 6 -146 0 -7 -5 -10 -11 -7 -5 3 -10 1 -10 -4 0
-6 6 -11 14 -11 10 0 12 -7 8 -22 -5 -21 -6 -21 -14 -2 -6 14 -7 9 -5 -19 2
-20 0 -37 -4 -37 -4 0 -10 -18 -14 -40 -8 -47 -14 -53 -39 -35 -15 12 -16 19
-7 47 17 54 23 100 11 93 -5 -3 -10 -22 -10 -41 0 -19 -4 -33 -9 -30 -5 4 -5
24 1 48 6 24 11 81 11 128 1 76 -2 94 -34 172 -30 72 -33 88 -21 93 8 3 16 4
17 3 1 -2 15 -27 30 -56 16 -28 30 -50 33 -48 2 3 -7 26 -22 52 -29 52 -32 61
-13 46 8 -7 18 -7 27 -2 13 8 12 10 -2 10 -24 0 -41 33 -25 50 10 10 8 12 -5
7 -24 -9 -62 31 -47 49 6 7 19 11 29 9 33 -6 88 15 120 46 32 32 40 73 16 82
-27 11 -89 -1 -118 -23 -34 -25 -59 -17 -31 11 10 10 27 29 38 43 l20 25 32
-25 c18 -14 30 -19 27 -12 -5 13 -101 78 -164 110 -41 22 -153 67 -192 79 -53
15 -27 -6 30 -25 31 -10 103 -41 159 -68 l103 -50 -28 -34 c-35 -45 -64 -52
-94 -25 -12 12 -28 19 -36 16 -7 -2 -11 -1 -8 4 3 5 -8 14 -25 22 -17 7 -41
22 -52 33 -11 12 -17 15 -13 9 4 -7 2 -13 -3 -13 -6 0 -11 7 -11 16 0 11 -5
14 -16 10 -11 -4 -15 -2 -11 8 7 18 -73 50 -152 61 -49 7 -51 8 -30 19 19 10
38 9 88 -1 35 -7 66 -11 68 -9 3 2 -22 9 -54 16 -32 6 -62 13 -68 14 -5 2 -23
-5 -40 -14 -60 -33 -145 -19 -145 25 0 9 17 12 71 9 39 -2 69 -1 66 2 -3 4
-34 7 -69 9 -85 5 -82 4 -75 12 4 3 2 12 -5 20 -19 23 -1 29 107 33 33 1 42
13 49 63 5 34 16 58 36 80 16 17 27 33 24 36 -2 2 -16 -10 -30 -27 -15 -17
-30 -29 -35 -26 -5 3 -9 -15 -9 -41 0 -51 0 -51 -80 -59 l-55 -6 41 38 c51 47
82 92 78 115 -1 10 -8 40 -15 67 -12 47 -11 52 9 80 12 16 22 37 21 47 0 14
-2 15 -6 3 -4 -8 -17 -33 -31 -55 l-25 -39 19 -54 18 -54 -32 -29 c-18 -16
-32 -33 -32 -38 0 -14 -51 -52 -61 -45 -5 3 -6 11 -2 17 6 10 11 45 15 107 0
8 8 24 18 35 41 47 43 162 4 208 -24 27 -47 46 -57 47 -4 0 -19 -12 -34 -27z
m215 -592 c1 -1 2 -4 2 -9 0 -11 -83 -2 -95 10 -7 6 7 8 40 4 28 -2 51 -5 53
-5z m56 -13 c-2 -3 -13 -6 -24 -5 -24 2 -18 13 9 13 11 0 18 -4 15 -8z m51 -8
c-3 -5 -12 -10 -18 -10 -7 0 -6 4 3 10 19 12 23 12 15 0z m72 -25 c0 -20 -4
-19 -17 5 -8 15 -8 18 3 14 8 -3 14 -11 14 -19z m-257 -45 c0 -18 -5 -30 -13
-30 -14 0 -19 23 -11 48 7 24 24 12 24 -18z m210 -12 c36 -11 92 -34 125 -51
50 -25 57 -31 40 -37 -11 -4 -21 -3 -23 1 -2 5 -10 9 -18 9 -9 0 -12 5 -8 12
4 6 3 8 -4 5 -5 -4 -32 5 -60 19 -40 21 -57 24 -88 18 l-39 -7 35 -14 c38 -14
22 -12 -82 14 -60 15 -68 20 -68 41 0 23 1 24 63 17 34 -3 91 -16 127 -27z
m-420 -8 c0 -11 -11 -16 -32 -18 -45 -3 -83 -19 -149 -63 -59 -40 -125 -104
-146 -142 -10 -20 -12 -20 -18 -4 -10 25 32 85 97 134 63 49 163 97 179 87 8
-4 9 -3 5 4 -4 7 -2 12 3 12 6 0 11 -5 11 -11 0 -5 5 -7 10 -4 6 4 8 10 5 15
-3 5 4 8 15 7 11 -1 20 -8 20 -17z m490 -82 c33 -17 56 -36 53 -41 -3 -5 -8
-5 -12 0 -3 5 -31 23 -61 41 -71 41 -56 41 20 0z m136 -14 c-3 -9 -6 -17 -6
-20 0 -2 -7 -1 -15 2 -12 5 -13 10 -4 20 16 19 33 18 25 -2z m83 -16 c10 -3 5
-11 -16 -26 -26 -18 -33 -20 -42 -8 -8 10 -9 16 -1 21 6 3 8 11 5 16 -4 5 2 6
12 2 16 -6 17 -5 3 13 -14 18 -14 18 5 3 11 -9 26 -18 34 -21z m-460 -59 c7
-22 16 -39 21 -39 13 0 12 10 -5 40 -8 14 -14 28 -15 31 -1 15 125 -38 154
-66 18 -16 30 -29 28 -28 -3 1 -16 -4 -31 -11 -32 -17 -107 -15 -140 3 -50 27
-219 12 -266 -23 -18 -13 -14 -13 29 -1 60 18 180 25 221 13 46 -14 143 -19
150 -8 8 14 75 13 75 -1 0 -6 -7 -8 -16 -5 -21 8 -71 -19 -79 -44 -3 -11 -10
-20 -15 -20 -5 0 -7 7 -4 15 4 9 0 15 -10 15 -9 0 -16 5 -16 11 0 8 -11 9 -32
4 -18 -3 -38 -8 -45 -9 -7 -1 -16 -6 -20 -10 -4 -5 8 -5 27 -1 51 11 64 11 65
-1 0 -18 34 -46 46 -38 8 4 9 3 5 -4 -11 -18 4 -37 16 -21 8 11 9 10 5 -2 -3
-10 3 -34 14 -54 11 -20 18 -39 16 -42 -3 -2 -8 5 -12 16 -3 12 -11 21 -16 21
-5 0 -9 6 -9 13 -1 19 -32 52 -78 81 -45 28 -58 20 -18 -11 13 -10 31 -34 41
-53 10 -19 22 -38 27 -41 5 -3 2 -11 -6 -18 -12 -10 -17 -7 -31 16 -47 80
-194 126 -278 89 -45 -21 -80 -53 -71 -67 5 -8 3 -9 -6 -4 -10 6 -12 4 -7 -8
3 -9 1 -17 -6 -20 -8 -2 -5 -13 8 -33 11 -16 18 -33 17 -37 -1 -5 2 -6 8 -2 5
3 13 0 16 -8 15 -41 99 -20 106 26 4 31 19 26 46 -14 13 -19 28 -33 33 -31 15
4 10 -13 -14 -49 -13 -20 -44 -44 -72 -58 -50 -23 -95 -34 -95 -22 0 3 -20 7
-44 7 -56 2 -118 40 -165 101 -30 38 -33 48 -23 64 10 16 9 19 -3 19 -11 0
-15 12 -15 45 0 25 3 45 6 45 3 0 15 -10 25 -22 l20 -23 -15 26 c-9 14 -13 29
-9 32 3 4 1 7 -5 7 -7 0 -12 5 -12 10 0 15 50 12 51 -2 1 -7 1 -23 1 -34 0
-12 15 -36 35 -55 26 -25 33 -28 24 -12 -6 13 -19 27 -29 32 -16 8 -20 37 -13
83 3 18 65 68 80 64 50 -13 71 -15 71 -7 0 16 -83 19 -107 5 -28 -17 -28 -17
-47 2 -19 19 -21 35 -3 28 7 -2 31 0 52 6 l40 10 -45 -5 -45 -5 25 20 c14 11
42 30 62 40 30 16 36 17 32 5 -4 -8 -1 -15 5 -15 6 0 11 4 11 8 0 16 35 49 48
45 6 -3 12 0 12 5 0 14 28 18 126 19 l82 1 11 -39z m348 28 c12 0 6 -27 -7
-27 -4 0 -15 10 -26 22 -19 21 -19 21 1 14 11 -5 25 -9 32 -9z m48 -17 c3 -5
2 -10 -4 -10 -5 0 -13 5 -16 10 -3 6 -2 10 4 10 5 0 13 -4 16 -10z m-10 -28
c-3 -3 -11 0 -18 7 -9 10 -8 11 6 5 10 -3 15 -9 12 -12z m69 -41 c-2 -2 -10 1
-18 8 -11 9 -15 9 -18 0 -3 -8 -11 -10 -22 -6 -9 4 -15 11 -11 16 3 6 12 8 19
5 8 -3 17 0 21 6 5 8 11 5 20 -7 7 -10 12 -20 9 -22z m-1090 -107 c-22 -65
-26 -89 -21 -145 3 -36 13 -84 21 -105 13 -32 13 -36 1 -20 -61 79 -55 302 10
348 18 13 16 0 -11 -78z m1095 72 c9 -10 9 -16 1 -21 -6 -4 -12 -5 -13 -4 -2
2 -9 12 -16 22 -11 14 -11 17 2 17 8 0 20 -6 26 -14z m41 -7 c0 -5 -4 -9 -10
-9 -5 0 -10 7 -10 16 0 8 5 12 10 9 6 -3 10 -10 10 -16z m-245 -58 c-8 -16
-24 -33 -35 -36 -13 -4 -23 -18 -27 -36 -5 -27 -7 -28 -19 -12 -19 26 -17 53
4 53 26 0 64 30 58 46 -3 9 2 14 15 14 18 0 19 -2 4 -29z m62 -48 c32 -54 61
-169 55 -218 -4 -35 -22 -50 -22 -19 0 9 -10 28 -21 42 -12 15 -20 23 -17 17
27 -63 40 -85 48 -85 5 0 7 -7 3 -15 -4 -11 -14 -14 -36 -11 -36 6 -48 22 -43
58 2 15 -2 35 -10 45 -7 10 -14 29 -14 43 -1 22 -2 23 -9 6 -7 -19 -8 -18 -23
3 -9 13 -20 21 -25 18 -7 -5 -9 19 -5 80 1 13 15 29 32 40 17 9 33 25 36 35 7
24 19 16 51 -39z m-184 -180 c-1 -84 -50 -167 -126 -216 -32 -20 -48 -17 -22
4 89 75 135 151 135 223 0 25 -5 48 -10 51 -6 4 -7 11 -4 17 12 20 28 -26 27
-79z m92 6 c-3 -5 0 -6 8 -3 19 7 35 -16 33 -46 -1 -14 2 -33 6 -42 6 -13 5
-18 -6 -18 -9 0 -13 -6 -10 -14 3 -7 -2 -16 -10 -19 -9 -4 -16 -12 -16 -19 0
-7 -9 -19 -19 -25 -18 -12 -19 -10 -14 25 3 20 9 42 13 47 12 16 15 58 6 74
-6 10 -5 12 2 7 7 -4 12 -3 12 3 0 5 -4 13 -10 16 -5 3 -10 13 -10 21 0 8 5
12 10 9 6 -4 8 -11 5 -16z m-65 -194 c0 -2 -14 -20 -31 -40 -17 -19 -27 -35
-22 -35 6 0 18 9 28 20 10 11 22 17 26 14 5 -3 9 -1 9 4 0 5 16 17 35 28 l35
19 30 -32 c37 -39 37 -46 3 -39 -16 3 -53 1 -83 -4 l-55 -9 56 4 c38 2 64 -1
77 -10 10 -8 23 -11 28 -7 4 4 -7 -12 -24 -35 -18 -23 -46 -53 -62 -66 -25
-21 -200 -117 -214 -117 -2 0 -3 8 -2 18 4 23 -11 32 -54 32 -41 0 -62 11 -52
27 4 6 42 25 84 42 42 18 83 39 90 48 7 9 9 14 3 12 -5 -3 -36 -17 -67 -33
-61 -29 -113 -43 -104 -27 3 5 21 12 39 15 19 3 41 12 50 19 16 11 15 12 -7
12 -13 0 -22 -3 -19 -7 2 -5 0 -8 -6 -8 -28 0 -17 22 21 41 24 12 64 39 91 61
26 21 47 37 47 35 0 -11 -59 -67 -88 -85 -27 -16 -30 -21 -16 -26 12 -5 35 13
83 63 68 71 71 74 71 66z m341 -28 c-10 -9 -11 -8 -5 6 3 10 9 15 12 12 3 -3
0 -11 -7 -18z m-101 -47 c0 -5 -4 -10 -10 -10 -5 0 -10 5 -10 10 0 6 5 10 10
10 6 0 10 -4 10 -10z m-915 -35 c21 -18 24 -23 10 -19 -16 6 -17 4 -9 -6 7 -6
23 -13 37 -13 14 -1 23 -6 20 -10 -6 -10 -38 0 -77 25 -28 18 -29 19 -6 13 22
-5 23 -4 7 5 -10 7 -25 9 -34 6 -13 -5 -14 -4 -3 9 16 20 20 19 55 -10z m471
-165 c17 0 24 -6 24 -20 0 -24 -22 -26 -55 -4 -28 18 -34 40 -9 30 9 -3 27 -6
40 -6z m66 -86 c7 -5 5 -11 -7 -21 -28 -19 -41 -16 -41 11 0 24 19 28 48 10z
m-62 -18 c0 -27 -35 -42 -57 -24 -20 16 -16 23 20 35 17 5 33 11 35 12 1 0 2
-10 2 -23z m-10 -43 c0 -5 -4 -15 -10 -23 -11 -18 -25 -7 -17 15 6 15 27 21
27 8z"/>
<path d="M1420 1699 c0 -5 11 -10 25 -10 14 -1 30 -3 35 -4 6 -1 20 -3 33 -4
18 -1 20 -3 7 -12 -12 -9 -12 -10 3 -5 10 3 26 6 34 6 9 0 13 3 10 6 -11 11
-147 32 -147 23z"/>
<path d="M1690 829 c0 -5 5 -7 10 -4 6 3 10 8 10 11 0 2 -4 4 -10 4 -5 0 -10
-5 -10 -11z"/>
<path d="M1350 550 c-23 -7 -23 -8 -3 -9 12 -1 25 4 28 9 3 6 5 10 3 9 -2 -1
-14 -5 -28 -9z"/>
<path d="M1403 1903 c9 -2 23 -2 30 0 6 3 -1 5 -18 5 -16 0 -22 -2 -12 -5z"/>
<path d="M1605 1881 c11 -10 85 -29 85 -22 0 4 -20 12 -45 18 -25 6 -43 8 -40
4z"/>
<path d="M1590 1850 c8 -5 22 -9 30 -9 10 0 8 3 -5 9 -27 12 -43 12 -25 0z"/>
<path d="M1448 1843 c7 -3 16 -2 19 1 4 3 -2 6 -13 5 -11 0 -14 -3 -6 -6z"/>
<path d="M1080 1830 c-9 -6 -10 -10 -3 -10 6 0 15 5 18 10 8 12 4 12 -15 0z"/>
<path d="M1650 1806 c0 -2 9 -6 20 -9 11 -3 18 -1 14 4 -5 9 -34 13 -34 5z"/>
<path d="M2210 1485 c40 -48 43 -51 32 -30 -6 11 -21 29 -34 40 -22 19 -22 19
2 -10z"/>
<path d="M1929 1485 c11 -23 49 -65 58 -65 3 0 -2 9 -12 20 -14 16 -15 20 -4
20 8 0 20 -4 27 -10 9 -7 9 -7 2 2 -5 7 -10 20 -10 30 0 11 -5 15 -15 12 -8
-4 -12 -10 -9 -15 10 -17 -19 -9 -33 9 -13 16 -13 15 -4 -3z"/>
<path d="M2000 1496 c0 -7 40 -14 44 -7 3 4 -6 8 -20 9 -13 1 -24 0 -24 -2z"/>
<path d="M510 1480 c0 -6 7 -10 15 -10 8 0 15 2 15 4 0 2 -7 6 -15 10 -8 3
-15 1 -15 -4z"/>
<path d="M1996 1397 c3 -10 9 -15 12 -12 3 3 0 11 -7 18 -10 9 -11 8 -5 -6z"/>
<path d="M436 1357 c3 -10 9 -15 12 -12 3 3 0 11 -7 18 -10 9 -11 8 -5 -6z"/>
<path d="M542 1325 c0 -16 2 -22 5 -12 2 9 2 23 0 30 -3 6 -5 -1 -5 -18z"/>
<path d="M2028 1285 c5 -11 12 -27 15 -35 5 -13 6 -13 6 1 1 8 -6 24 -15 35
-15 19 -15 19 -6 -1z"/>
<path d="M545 1205 c5 -64 44 -185 73 -224 18 -25 52 -37 52 -20 0 6 5 7 10 4
14 -9 12 7 -5 29 -8 10 -12 23 -9 27 7 12 -15 51 -25 44 -9 -5 -36 73 -50 145
-5 26 -9 34 -10 20 -2 -62 41 -188 81 -238 6 -7 7 -16 3 -20 -4 -4 -10 -1 -12
6 -3 6 -8 10 -12 7 -10 -5 -48 68 -57 110 -4 17 -11 35 -16 41 -4 6 -13 38
-18 70 l-9 59 4 -60z m115 -180 c0 -5 -5 -3 -10 5 -5 8 -10 20 -10 25 0 6 5 3
10 -5 5 -8 10 -19 10 -25z"/>
<path d="M2010 1101 c0 -6 4 -13 10 -16 6 -3 7 1 4 9 -7 18 -14 21 -14 7z"/>
<path d="M531 1089 c-1 -4 6 -22 14 -40 16 -38 75 -128 75 -116 0 5 -10 22
-21 39 -12 16 -32 51 -45 76 -13 26 -23 44 -23 41z"/>
<path d="M1749 763 l-24 -28 28 24 c15 14 27 26 27 28 0 8 -8 1 -31 -24z"/>
<path d="M746 525 c29 -13 69 -26 90 -30 25 -4 8 5 -45 25 -99 36 -116 37 -45
5z"/>
<path d="M1107 430 c7 -8 63 -7 63 1 0 3 -15 6 -34 5 -19 0 -32 -3 -29 -6z"/>
</g>
</svg>
